<svg
   xmlns="http://www.w3.org/2000/svg"
   viewBox="0 0 34.871002 43.916"
   xmlns:c="credits"
   c:url="https://www.flaticon.com/authors/freepik"
   c:author="Freepik">

  <path
     d="M 29.873,0 H 5 C 2.238,0 0,2.239 0,5 v 33.916 c 0,2.761 2.238,5 5,5 h 24.871 c 2.762,0 5,-2.239 5,-5 V 5 C 34.873,2.239 32.632,0 29.873,0 Z M 4.686,16.855 c 0,-1.172 0.951,-2.121 2.121,-2.121 H 7.549 C 6.758,13.86 6.272,12.704 6.272,11.43 c 0,-2.723 2.209,-4.931 4.932,-4.931 2.725,0 4.932,2.207 4.932,4.932 0,1.272 -0.486,2.429 -1.279,3.303 h 0.709 c 1.172,0 2.121,0.949 2.121,2.121 v 3.578 c 0,1.122 -0.875,2.03 -1.975,2.106 H 6.661 C 5.561,22.463 4.686,21.555 4.686,20.433 Z m 23.5,20.561 h -21.5 c -1.104,0 -2,-0.896 -2,-2 0,-1.104 0.896,-2 2,-2 h 21.5 c 1.104,0 2,0.896 2,2 0,1.104 -0.896,2 -2,2 z m 0,-7.5 h -21.5 c -1.104,0 -2,-0.896 -2,-2 0,-1.104 0.896,-2 2,-2 h 21.5 c 1.104,0 2,0.896 2,2 0,1.104 -0.896,2 -2,2 z m 0,-7.5 h -6.5 c -1.104,0 -2,-0.896 -2,-2 0,-1.104 0.896,-2 2,-2 h 6.5 c 1.104,0 2,0.896 2,2 0,1.104 -0.896,2 -2,2 z" />
</svg>
