<?xml version="1.0" standalone="no"?>
<!DOCTYPE svg PUBLIC "-//W3C//DTD SVG 20010904//EN"
 "http://www.w3.org/TR/2001/REC-SVG-20010904/DTD/svg10.dtd">
<svg version="1.0" xmlns="http://www.w3.org/2000/svg"
 width="704.000000pt" height="704.000000pt" viewBox="0 0 704.000000 704.000000"
 preserveAspectRatio="xMidYMid meet">
<metadata>
Created by potrace 1.11, written by Peter Selinger 2001-2013
</metadata>
<g transform="translate(0.000000,704.000000) scale(0.100000,-0.100000)"
fill="#000000" stroke="none">
<path d="M1439 7036 c-2 -2 -20 -6 -39 -9 -122 -19 -238 -66 -325 -132 -25
-19 -47 -35 -49 -35 -3 0 -26 -21 -51 -47 -126 -125 -202 -271 -234 -443 -3
-19 -6 -1308 -6 -2865 l0 -2830 23 -79 c27 -95 74 -194 119 -253 18 -24 33
-45 33 -48 0 -10 92 -96 142 -133 90 -67 176 -109 273 -134 22 -5 49 -13 60
-16 11 -4 962 -8 2113 -9 1853 -3 2101 -1 2170 12 42 9 86 20 97 24 11 5 44
18 73 30 30 11 84 41 120 65 174 117 282 271 337 478 l24 93 1 2803 c0 2520
-2 2811 -16 2880 -58 282 -244 502 -509 601 -140 53 -49 51 -2279 51 -1140 0
-2075 -2 -2077 -4z m1246 -1055 c321 -66 567 -324 621 -651 10 -57 11 -171 2
-235 -9 -67 -54 -212 -69 -221 -5 -3 -7 -9 -4 -14 3 -4 -2 -13 -10 -20 -8 -7
-15 -17 -15 -23 0 -5 -11 -25 -25 -43 -14 -18 -25 -37 -25 -43 0 -6 -9 -15
-21 -21 -38 -21 -14 -32 77 -35 136 -4 228 -52 293 -154 53 -82 57 -113 55
-486 -1 -375 -2 -380 -68 -473 -29 -41 -110 -103 -151 -115 -56 -17 -156 -20
-840 -20 -816 0 -786 -2 -881 64 -76 52 -135 152 -139 239 -4 66 -7 220 -5
275 3 131 2 214 -4 223 -4 7 -3 12 1 12 5 0 8 15 6 33 -9 84 8 177 45 237 24
39 74 90 112 115 54 34 108 48 199 51 45 1 85 5 88 7 2 3 -14 29 -36 58 -96
127 -161 324 -155 474 2 64 14 155 24 181 5 13 8 24 5 24 -8 0 45 123 79 183
19 34 53 83 74 109 39 47 163 158 176 158 3 0 23 11 44 24 51 34 192 85 255
92 29 4 53 7 55 9 7 6 193 -4 237 -14z m2655 -1908 c139 -40 235 -180 226
-328 -9 -141 -122 -269 -258 -292 -42 -8 -1122 -8 -1165 0 -143 24 -259 169
-255 317 2 66 4 74 26 124 36 85 106 148 196 178 67 23 1154 24 1230 1z m13
-1207 c76 -25 147 -89 183 -164 22 -45 28 -71 28 -127 0 -38 -3 -79 -5 -90
-29 -113 -129 -208 -244 -232 -43 -10 -3555 -9 -3592 0 -81 21 -165 90 -208
172 -26 51 -30 67 -29 139 1 96 21 148 82 217 44 49 88 75 161 94 33 8 524 11
1805 10 1700 0 1763 -1 1819 -19z m-43 -1190 c154 -27 273 -186 256 -343 -12
-112 -81 -209 -186 -261 l-55 -27 -1790 -1 c-1469 -1 -1796 1 -1822 12 -18 7
-33 11 -33 8 0 -7 -103 68 -123 90 -41 47 -71 129 -71 196 0 106 11 139 72
217 39 50 85 80 158 102 50 15 216 16 1802 15 961 0 1767 -4 1792 -8z"/>
</g>
</svg>
